<svg width="72" height="36" viewBox="0 0 72 36" fill="none" xmlns="http://www.w3.org/2000/svg">
<rect y="0.388672" width="72" height="35" rx="6" fill="#EDFBED"/>
<path d="M14.436 14.8827V17.6487H17.814V18.7827H14.436V22.3887H13.026V13.7487H18.414V14.8827H14.436ZM20.8917 16.2687V22.3887H19.6017V16.2687H20.8917ZM21.1077 14.4207C21.1077 14.5367 21.0837 14.6467 21.0357 14.7507C20.9917 14.8547 20.9297 14.9467 20.8497 15.0267C20.7697 15.1027 20.6757 15.1647 20.5677 15.2127C20.4637 15.2567 20.3517 15.2787 20.2317 15.2787C20.1157 15.2787 20.0057 15.2567 19.9017 15.2127C19.8017 15.1647 19.7137 15.1027 19.6377 15.0267C19.5617 14.9467 19.4997 14.8547 19.4517 14.7507C19.4077 14.6467 19.3857 14.5367 19.3857 14.4207C19.3857 14.3007 19.4077 14.1887 19.4517 14.0847C19.4997 13.9807 19.5617 13.8907 19.6377 13.8147C19.7137 13.7347 19.8017 13.6727 19.9017 13.6287C20.0057 13.5807 20.1157 13.5567 20.2317 13.5567C20.3517 13.5567 20.4637 13.5807 20.5677 13.6287C20.6757 13.6727 20.7697 13.7347 20.8497 13.8147C20.9297 13.8907 20.9917 13.9807 21.0357 14.0847C21.0837 14.1887 21.1077 14.3007 21.1077 14.4207ZM23.8266 13.5087V22.3887H22.5366V13.5087H23.8266ZM27.3808 22.4847C26.8728 22.4847 26.4808 22.3427 26.2048 22.0587C25.9328 21.7707 25.7968 21.3667 25.7968 20.8467V17.2827H25.1248C25.0528 17.2827 24.9908 17.2607 24.9388 17.2167C24.8868 17.1687 24.8608 17.0987 24.8608 17.0067V16.4847L25.8508 16.3407L26.1328 14.5707C26.1528 14.5027 26.1868 14.4487 26.2348 14.4087C26.2828 14.3647 26.3468 14.3427 26.4268 14.3427H27.0868V16.3527H28.7848V17.2827H27.0868V20.7567C27.0868 20.9767 27.1408 21.1447 27.2488 21.2607C27.3568 21.3767 27.5008 21.4347 27.6808 21.4347C27.7808 21.4347 27.8668 21.4227 27.9388 21.3987C28.0108 21.3707 28.0728 21.3427 28.1248 21.3147C28.1768 21.2827 28.2208 21.2547 28.2568 21.2307C28.2968 21.2027 28.3348 21.1887 28.3708 21.1887C28.4428 21.1887 28.5008 21.2287 28.5448 21.3087L28.9288 21.9387C28.7288 22.1147 28.4928 22.2507 28.2208 22.3467C27.9488 22.4387 27.6688 22.4847 27.3808 22.4847ZM33.7688 18.6387C33.7688 18.4227 33.7368 18.2227 33.6728 18.0387C33.6128 17.8507 33.5228 17.6887 33.4028 17.5527C33.2828 17.4127 33.1328 17.3047 32.9528 17.2287C32.7768 17.1487 32.5728 17.1087 32.3408 17.1087C31.8728 17.1087 31.5048 17.2427 31.2368 17.5107C30.9688 17.7787 30.7988 18.1547 30.7268 18.6387H33.7688ZM30.6908 19.4307C30.7068 19.7787 30.7608 20.0807 30.8528 20.3367C30.9448 20.5887 31.0668 20.7987 31.2188 20.9667C31.3748 21.1347 31.5588 21.2607 31.7708 21.3447C31.9868 21.4247 32.2268 21.4647 32.4908 21.4647C32.7428 21.4647 32.9608 21.4367 33.1448 21.3807C33.3288 21.3207 33.4888 21.2567 33.6248 21.1887C33.7608 21.1167 33.8768 21.0527 33.9728 20.9967C34.0688 20.9367 34.1568 20.9067 34.2368 20.9067C34.3408 20.9067 34.4208 20.9467 34.4768 21.0267L34.8428 21.5007C34.6908 21.6807 34.5188 21.8327 34.3268 21.9567C34.1348 22.0807 33.9308 22.1827 33.7148 22.2627C33.4988 22.3387 33.2768 22.3927 33.0488 22.4247C32.8208 22.4607 32.5988 22.4787 32.3828 22.4787C31.9588 22.4787 31.5648 22.4087 31.2008 22.2687C30.8408 22.1247 30.5268 21.9147 30.2588 21.6387C29.9948 21.3627 29.7868 21.0207 29.6348 20.6127C29.4868 20.2047 29.4128 19.7347 29.4128 19.2027C29.4128 18.7787 29.4788 18.3827 29.6108 18.0147C29.7468 17.6467 29.9388 17.3267 30.1868 17.0547C30.4388 16.7827 30.7428 16.5687 31.0988 16.4127C31.4588 16.2527 31.8648 16.1727 32.3168 16.1727C32.6928 16.1727 33.0408 16.2347 33.3608 16.3587C33.6808 16.4787 33.9568 16.6567 34.1888 16.8927C34.4208 17.1287 34.6008 17.4187 34.7288 17.7627C34.8608 18.1027 34.9268 18.4907 34.9268 18.9267C34.9268 19.1267 34.9048 19.2607 34.8608 19.3287C34.8168 19.3967 34.7368 19.4307 34.6208 19.4307H30.6908ZM37.3478 17.4027C37.5398 17.0147 37.7718 16.7107 38.0438 16.4907C38.3158 16.2667 38.6418 16.1547 39.0218 16.1547C39.1538 16.1547 39.2778 16.1707 39.3938 16.2027C39.5098 16.2307 39.6138 16.2747 39.7058 16.3347L39.6158 17.3067C39.5998 17.3747 39.5738 17.4227 39.5378 17.4507C39.5058 17.4747 39.4618 17.4867 39.4058 17.4867C39.3458 17.4867 39.2598 17.4767 39.1478 17.4567C39.0358 17.4327 38.9178 17.4207 38.7938 17.4207C38.6138 17.4207 38.4538 17.4467 38.3138 17.4987C38.1778 17.5507 38.0538 17.6267 37.9418 17.7267C37.8338 17.8267 37.7378 17.9487 37.6538 18.0927C37.5698 18.2367 37.4918 18.4007 37.4198 18.5847V22.3887H36.1298V16.2687H36.8798C37.0158 16.2687 37.1098 16.2947 37.1618 16.3467C37.2138 16.3947 37.2498 16.4807 37.2698 16.6047L37.3478 17.4027Z" fill="#222222"/>
<path d="M47.3319 15.8893C47.3311 15.7569 47.3698 15.6272 47.443 15.5169C47.5162 15.4065 47.6206 15.3205 47.7429 15.2697C47.8652 15.2189 47.9999 15.2057 48.1297 15.2318C48.2595 15.2578 48.3787 15.3219 48.4719 15.416L51.9986 18.9493L55.5252 15.416C55.6508 15.2904 55.821 15.2199 55.9986 15.2199C56.0865 15.2199 56.1735 15.2372 56.2547 15.2709C56.336 15.3045 56.4097 15.3538 56.4719 15.416C56.5341 15.4781 56.5834 15.5519 56.617 15.6331C56.6507 15.7143 56.668 15.8014 56.668 15.8893C56.668 16.0668 56.5974 16.2371 56.4719 16.3626L52.4719 20.3626C52.347 20.4868 52.178 20.5565 52.0019 20.5565C51.8258 20.5565 51.6568 20.4868 51.5319 20.3626L47.5319 16.3626C47.4689 16.3009 47.4188 16.2273 47.3845 16.146C47.3501 16.0648 47.3323 15.9775 47.3319 15.8893Z" fill="#222222"/>
</svg>
