<svg width="20" height="24" viewBox="0 0 20 24" fill="none" xmlns="http://www.w3.org/2000/svg">
<path id="Vector" d="M17.95 5.53598L14.465 2.05098C13.143 0.728977 11.385 0.000976897 9.515 0.000976897H5C2.243 -2.31033e-05 0 2.24298 0 4.99998V19C0 21.757 2.243 24 5 24H15C17.757 24 20 21.757 20 19V10.485C20 8.61498 19.272 6.85898 17.95 5.53598ZM16.536 6.94998C16.854 7.26798 17.123 7.62098 17.341 7.99998H13C12.449 7.99998 12 7.55098 12 6.99998V2.65898C12.379 2.87698 12.733 3.14598 13.05 3.46398L16.535 6.94898L16.536 6.94998ZM18 19C18 20.654 16.654 22 15 22H5C3.346 22 2 20.654 2 19V4.99998C2 3.34598 3.346 1.99998 5 1.99998H9.515C9.678 1.99998 9.84 2.00798 10 2.02298V6.99998C10 8.65398 11.346 9.99998 13 9.99998H17.977C17.992 10.16 18 10.322 18 10.485V19ZM13.5 13H6.5C5.122 13 4 14.122 4 15.5V17.5C4 18.878 5.122 20 6.5 20H13.5C14.878 20 16 18.878 16 17.5V15.5C16 14.122 14.878 13 13.5 13ZM14 17.5C14 17.776 13.776 18 13.5 18H6.5C6.224 18 6 17.776 6 17.5V15.5C6 15.224 6.224 15 6.5 15H13.5C13.776 15 14 15.224 14 15.5V17.5ZM4 9.99998C4 9.44798 4.448 8.99998 5 8.99998H7C7.552 8.99998 8 9.44798 8 9.99998C8 10.552 7.552 11 7 11H5C4.448 11 4 10.552 4 9.99998ZM4 5.99998C4 5.44798 4.448 4.99998 5 4.99998H7C7.552 4.99998 8 5.44798 8 5.99998C8 6.55198 7.552 6.99998 7 6.99998H5C4.448 6.99998 4 6.55198 4 5.99998Z" fill="#4FD54C"/>
</svg>
